# xmcd CD database file
#
# Track frame offsets:
#	150
#	15514
#	29163
#	45145
#	61751
#	76127
#	87389
#	103301
#	121102
#	136913
#	153515
#
# Disc length: 2238 seconds
#
# Revision: 0
# Processed by: cddbd v1.5.2PL0 Copyright (c) Steve Scherf et al.
# Submitted via: CDex 2.06
#
DISCID=7f08bc0b
DTITLE=Road Chicks - bitter sweet
DYEAR=2012
DGENRE=Country
TTITLE0=Good Riddance
TTITLE1=Wild Thing In Me
TTITLE2=Make Me Love You
TTITLE3=If The End Was Easy
TTITLE4=Cool In My Skin
TTITLE5=Breathless
TTITLE6=Cupid You Must Have Been Drinking
TTITLE7=Looking For Love With My Eyes Closed
TTITLE8=Just Smile
TTITLE9=1000 Things
TTITLE10=I Love You But Shut Up
EXTD=YEAR: 2012
EXTT0=
EXTT1=
EXTT2=
EXTT3=
EXTT4=
EXTT5=
EXTT6=
EXTT7=
EXTT8=
EXTT9=
EXTT10=
PLAYORDER=
